<?xml version="1.0" encoding="utf-8"?>
<!-- Generator: Adobe Illustrator 26.3.1, SVG Export Plug-In . SVG Version: 6.00 Build 0)  -->
<svg version="1.1" id="图层_1" xmlns="http://www.w3.org/2000/svg" xmlns:xlink="http://www.w3.org/1999/xlink" x="0px" y="0px"
	 viewBox="0 0 854 230" style="enable-background:new 0 0 854 230;" xml:space="preserve">
<style type="text/css">
	.st0{fill:#FFFFFF;}
	.st1{fill:#A494F2;}
	.st2{fill:#886CE4;}
	.st3{fill:none;stroke:#000000;stroke-width:50;stroke-miterlimit:10;}
	.st4{fill:#F0F0F0;}
	.st5{fill:#070706;}
</style>
<g>
	<path class="st5" d="M163.8,61.3c6.6-31.1-13.3-56.4-44.4-56.4H41.2L40,10.4l0,0L23.8,86.7l0,0l-2.6,12.4L3.7,181h31l13.4-63.3
		h47.1C126.4,117.7,157.1,92.4,163.8,61.3z M65.6,35.8h47.1c14,0,23,11.4,20,25.4c-3,14-16.8,25.4-30.8,25.4H54.8L65.6,35.8z"/>
	<path class="st5" d="M213.5,60.7c-33.2,0-65.9,27-72.9,60.2c-7.1,33.2,14.2,60.2,47.4,60.2s65.9-27,72.9-60.2
		C267.9,87.6,246.7,60.7,213.5,60.7z M229.9,120.8c-3.4,16.1-19.3,29.1-35.3,29.1s-26.4-13.1-23-29.1c3.4-16.1,19.3-29.1,35.3-29.1
		S233.3,104.7,229.9,120.8z"/>
	<path class="st5" d="M316.7,68.1c-2.9,2.1-5.7,4.5-8.3,6.9l2.3-10.6h-31L254.9,181h31l13.7-64.3c7-14.2,16.2-22.3,25.3-25.6
		c13.5-5,26.5,1.2,26.5,1.2l5.9-27.9C354.9,61.3,332.9,56.3,316.7,68.1z"/>
	<path class="st5" d="M438.9,169.8l3.1-34.7c0,0-11.2,18-26.2,18.6c-16.9,0.7-18.1-11.2-16.1-20.5l8.8-41.6h19.8l6.6-31h-19.8
		l3.8-18h-31l-3.8,18h-19.8l-6.6,31h19.8l-8.8,41.6c-5,23.6,3.4,39.7,21.7,46.5C415.3,189,438.9,169.8,438.9,169.8z"/>
	<path class="st5" d="M587.5,60.7c-33.2,0-65.9,27-72.9,60.2c-7.1,33.2,14.2,60.2,47.4,60.2c33.2,0,65.9-27,72.9-60.2
		S620.6,60.7,587.5,60.7z M603.8,120.8c-3.4,16.1-19.3,29.1-35.3,29.1c-16.1,0-26.4-13.1-23-29.1c3.4-16.1,19.3-29.1,35.3-29.1
		S607.3,104.7,603.8,120.8z"/>
	<path class="st5" d="M525.9,84.7l1.3-6h-19.5c3.1-7.9,6-14.4,8.4-18c8.7-13.5,31.8-9.3,38.7-7.8l13.1-30.3
		c-33.2-7.7-62.2,2-77.6,25.7c-4.4,6.8-9,17.2-14,30.4h-28.5l-6.6,31h24.2c-3.2,9.5-6.4,19.8-9.9,30.6c-2.8,8.7-5.4,17-7.5,23.3
		c-8.7,26-15.8,28.2-21.5,30c-6.6,2.1-10.2-2.2-10.8-3.1c0.1,0.2,0.2,0.2,0.2,0.2l-27.8,20.2c3.9,6.1,13.6,14.3,28.3,14.3
		c4.2,0,8.7-0.7,13.7-2.2c28.7-8.9,40.3-33.1,47.9-55.6c2.2-6.6,4.9-15,7.7-23.8c3.1-9.7,6.9-21.8,11-33.9h14.6
		C514.5,100.7,519.5,92.2,525.9,84.7z"/>
	<path class="st5" d="M801.4,60.7c-33.2,0-65.9,27-72.9,60.2c-2.4,11.3-1.5,21.9,2,30.9c-2.2,2.2-5.5,3.8-10,3.8
		c-8.1,0-6.7-9.5-5.7-14.3l8.6-40.3h-31l-8.6,40.3c-1,4.8-3.7,14.3-11.7,14.3s-6.7-9.5-5.7-14.3L695.6,4.4h-31l-29.1,136.9
		c-4.7,21.9,9.4,39.7,31.3,39.7c9.1,0,18.1-3.1,25.9-8.3c5.6,5.2,13.3,8.3,22.4,8.3c10.4,0,20.6-4,29.1-10.5
		c8.3,6.6,19.1,10.5,31.7,10.5c33.2,0,65.9-27,72.9-60.2S834.6,60.7,801.4,60.7z M817.8,120.8c-3.4,16.1-19.3,29.1-35.3,29.1
		s-26.4-13.1-23-29.1c3.4-16.1,19.3-29.1,35.3-29.1S821.2,104.7,817.8,120.8z"/>
	
		<ellipse transform="matrix(0.7435 -0.6687 0.6687 0.7435 133.3269 496.2212)" class="st5" cx="713.6" cy="74.3" rx="22.1" ry="17.8"/>
</g>
</svg>
